# xmcd
# 
# Track frame offsets:
#     180
#     18435
#     36096
#     52591
#     71264
#     89721
#     109664
#     125803
#     141229
#     156352
# 
# Disc length: 2331
# 
# Revision: 0
# Processed by: cddbd v1.5.2PL0 Copyright (c) Steve Scherf et al.
# Submitted via: fre:ac v1.0.31
# 
DISCID=8509190a
DTITLE=ฝน ธนสุนทร - Romantic Rain
DYEAR=0
DGENRE=
TTITLE0=หนึ่งเดียวคือเธอ
TTITLE1=จำได้ไหม
TTITLE2=สักวัน
TTITLE3=ถือว่าเก่ง
TTITLE4=รู้ไหมรักเธอ (Acoustic Version)
TTITLE5=เธอจะไม่เหงา
TTITLE6=แล้วจะรอ
TTITLE7=ขอร้อง
TTITLE8=ลายมือเก่าๆ
TTITLE9=ที่ฉันมี
EXTD=
EXTT0=
EXTT1=
EXTT2=
EXTT3=
EXTT4=
EXTT5=
EXTT6=
EXTT7=
EXTT8=
EXTT9=
PLAYORDER=
